<svg width="40" height="40" viewBox="0 0 40 40" fill="none" xmlns="http://www.w3.org/2000/svg">
<circle cx="20" cy="20" r="19.5" fill="#F4F7F9" stroke="#DEE5ED"/>
<path d="M16.9 27C18.8086 27.979 21.0041 28.2442 23.0909 27.7478C25.1777 27.2513 27.0186 26.0258 28.2818 24.2922C29.545 22.5585 30.1474 20.4307 29.9806 18.2921C29.8137 16.1536 28.8886 14.145 27.3718 12.6282C25.855 11.1114 23.8464 10.1862 21.7078 10.0194C19.5693 9.85257 17.4415 10.455 15.7078 11.7182C13.9742 12.9814 12.7487 14.8223 12.2522 16.9091C11.7558 18.9959 12.0209 21.1914 13 23.1L11 29L16.9 27Z" stroke="#3372E8" stroke-width="1.5" stroke-linecap="round" stroke-linejoin="round"/>
<path d="M17 19H17.01" stroke="#3372E8" stroke-width="2" stroke-linecap="round" stroke-linejoin="round"/>
<path d="M21 19H21.01" stroke="#3372E8" stroke-width="2" stroke-linecap="round" stroke-linejoin="round"/>
<path d="M25 19H25.01" stroke="#3372E8" stroke-width="2" stroke-linecap="round" stroke-linejoin="round"/>
</svg>
