<svg width="163" height="52" viewBox="0 0 163 52" fill="none" xmlns="http://www.w3.org/2000/svg">
<path d="M4.55005 14.95C4.55005 12.4371 6.58715 10.4 9.10005 10.4H66.9501V42.25H9.10005C6.58715 42.25 4.55005 40.2129 4.55005 37.7V14.95Z" fill="url(#paint0_linear_6755_401)"/>
<path d="M66.95 10.4H153.4C155.913 10.4 157.95 12.4371 157.95 14.95V37.7C157.95 40.2129 155.913 42.25 153.4 42.25H66.95V10.4Z" fill="url(#paint1_linear_6755_401)"/>
<path d="M23.4193 29.3268C23.4193 30.5317 23.2473 31.4932 22.9156 32.2114C22.584 32.9295 22.1417 33.4772 21.6135 33.8423C21.0853 34.2196 20.4956 34.463 19.8445 34.5848C19.1935 34.7065 18.5547 34.7673 17.9282 34.7673H11.7V17.2529H18.5547C19.4392 17.2529 20.1516 17.399 20.7168 17.6911C21.2818 17.9832 21.7241 18.3605 22.0557 18.8351C22.3874 19.3098 22.6086 19.8332 22.7314 20.4053C22.8542 20.9773 22.9033 21.5493 22.8911 22.097C22.8665 23.6915 22.4612 24.7747 21.6749 25.3468C22.1909 25.5902 22.6085 26.0284 22.9402 26.6613C23.2596 27.3063 23.4193 28.1949 23.4193 29.3268ZM19.5866 22.1579C19.5866 21.6102 19.5252 21.1964 19.39 20.9286C19.2549 20.6609 18.9969 20.527 18.6038 20.527H15.0536V24.0201H18.2844C18.7881 24.0201 19.1198 23.8497 19.304 23.5211C19.4883 23.1803 19.5866 22.7178 19.5866 22.1579ZM20.0534 29.3511C20.0534 28.8643 20.0165 28.4748 19.9305 28.1949C19.8568 27.9149 19.7462 27.6837 19.6235 27.5254C19.5006 27.3672 19.3655 27.2576 19.2058 27.209C19.0583 27.1603 18.9109 27.136 18.7635 27.136H15.0536V31.335H18.4809C19.0706 31.335 19.4883 31.1768 19.7094 30.8725C19.9428 30.5561 20.0534 30.0571 20.0534 29.3511ZM36.8585 34.7673H25.6305V17.2529H36.662V20.6487H28.9719V23.8741H36.0477V27.2699H28.9719V31.3472H36.8585V34.7673ZM49.8555 29.5945C49.8555 33.2824 47.8531 35.1325 43.8484 35.1325C41.9074 35.1325 40.421 34.5848 39.4014 33.5015C38.3818 32.4061 37.8781 30.7264 37.8781 28.4505H41.1335C41.1581 28.9495 41.2195 29.4242 41.3055 29.838C41.3915 30.264 41.5512 30.6169 41.7723 30.9212C41.9934 31.2255 42.2759 31.4567 42.6322 31.6271C42.9885 31.7975 43.443 31.8827 43.9958 31.8827C44.9048 31.8827 45.5559 31.7124 45.9613 31.3837C46.3667 31.0551 46.5755 30.3979 46.5755 29.4485C46.5755 28.9495 46.4895 28.5844 46.3298 28.3652C46.1701 28.1462 45.9122 27.9758 45.5682 27.8419C45.1751 27.6958 44.696 27.5863 44.1432 27.5011C43.5904 27.4159 42.9516 27.282 42.2391 27.0873C41.6863 26.9291 41.1704 26.7465 40.7035 26.5396C40.2367 26.3326 39.8191 26.0527 39.4628 25.6754C39.1066 25.2981 38.8363 24.8112 38.6398 24.2149C38.4432 23.6185 38.3449 22.8273 38.3449 21.8536C38.3449 21.1356 38.4309 20.5148 38.6152 19.9914C38.7871 19.468 39.0328 19.0177 39.3277 18.6526C39.6225 18.2875 39.9665 17.9953 40.3473 17.7641C40.7404 17.5329 41.1335 17.3624 41.5389 17.2408C41.9443 17.119 42.3497 17.0339 42.7551 16.9973C43.1604 16.9608 43.5412 16.9365 43.8729 16.9365C45.0277 16.9365 45.9736 17.119 46.6861 17.472C47.4109 17.825 47.9636 18.2996 48.369 18.8595C48.7745 19.4316 49.0447 20.0766 49.1798 20.7825C49.3149 21.5007 49.3886 22.2066 49.3886 22.9004H46.1947C46.1455 22.6083 46.1087 22.2796 46.0718 21.9267C46.0472 21.5737 45.9613 21.2572 45.8385 21.0017C45.7279 20.7704 45.5436 20.5635 45.2611 20.3809C44.9785 20.1983 44.5363 20.101 43.9344 20.101C43.4675 20.101 43.0744 20.1375 42.7673 20.2227C42.4602 20.3079 42.2268 20.4296 42.0548 20.5878C41.8828 20.7461 41.76 20.9651 41.6986 21.2207C41.6372 21.4764 41.6003 21.7928 41.6003 22.1457C41.6003 22.5717 41.6986 22.876 41.8828 23.0586C42.0671 23.2412 42.4234 23.3994 42.9393 23.5333C43.4798 23.6793 44.0204 23.801 44.5731 23.8984C45.1259 23.9958 45.6542 24.1175 46.1701 24.2514C46.6861 24.3852 47.1652 24.5678 47.6074 24.7991C48.0496 25.0304 48.4428 25.3346 48.7745 25.7363C49.1061 26.1379 49.3764 26.6491 49.5606 27.2699C49.7695 27.8906 49.8555 28.6695 49.8555 29.5945ZM62.0539 20.6365H58.0123V34.7673H54.6587V20.6365H50.6171V17.2529H62.0417L62.0539 20.6365Z" fill="white"/>
<path d="M83.7242 28.3288C83.6507 29.2416 83.4908 30.1058 83.2451 30.9335C82.9994 31.7611 82.6433 32.4792 82.1765 33.0878C81.7099 33.7085 81.0956 34.1954 80.3461 34.5605C79.5967 34.9256 78.6873 35.1082 77.6187 35.1082C76.3902 35.1082 75.3463 34.9013 74.4864 34.4875C73.6264 34.0736 72.9387 33.4651 72.3979 32.6861C71.8695 31.895 71.4769 30.9213 71.2436 29.765C70.9979 28.6087 70.875 27.2942 70.875 25.8094C70.875 24.4462 71.0095 23.2047 71.2676 22.1093C71.5256 21.0139 71.9312 20.0767 72.4837 19.2977C73.0369 18.5309 73.7369 17.9346 74.5722 17.5208C75.4198 17.1069 76.4273 16.9 77.594 16.9C78.7738 16.9 79.7319 17.0826 80.4813 17.4477C81.2308 17.8129 81.8203 18.2875 82.2747 18.8717C82.7167 19.456 83.0365 20.1254 83.2328 20.8678C83.4298 21.6103 83.5643 22.3649 83.6507 23.1073H80.4813C80.4072 22.7179 80.3214 22.3406 80.2233 21.9876C80.1375 21.6346 79.9899 21.3182 79.8053 21.0626C79.6214 20.807 79.3633 20.6001 79.0442 20.4419C78.7244 20.2836 78.2947 20.2106 77.7539 20.2106C77.1026 20.2106 76.5501 20.3201 76.1081 20.527C75.6655 20.734 75.297 21.0748 75.0272 21.5494C74.7568 22.0241 74.5598 22.6449 74.437 23.4117C74.3141 24.1784 74.2654 25.1278 74.2654 26.2597C74.2654 27.4038 74.3512 28.3166 74.5111 29.0347C74.6704 29.7406 74.9044 30.3006 75.1988 30.69C75.4939 31.0917 75.8501 31.3595 76.2797 31.5055C76.71 31.6516 77.1767 31.7246 77.7052 31.7246C78.2453 31.7246 78.6633 31.6394 78.9824 31.4811C79.3016 31.3229 79.5473 31.0917 79.7319 30.7874C79.9158 30.4831 80.0634 30.1301 80.1615 29.7163C80.272 29.3025 80.3708 28.84 80.4813 28.3166L83.7242 28.3288ZM97.176 34.7674H93.8343V27.2091H88.7974V34.7674H85.4564V17.253H88.7974V23.7889H93.8343V17.253H97.176V34.7674ZM111.266 34.7674H107.765L106.843 31.1525H102.397L101.487 34.7674H98.1093L102.949 17.253H106.266L111.266 34.7674ZM106.008 27.8907L104.632 22.2554L103.22 27.8907H106.008ZM121.081 34.7674L115.971 24.1054V34.7674H112.63V17.253H115.91L121.057 27.842V17.253H124.373V34.7674H121.081ZM139.447 34.7674H136.732V32.9904C136.535 33.4164 136.29 33.7572 135.995 34.0249C135.699 34.2927 135.38 34.4996 135.036 34.6578C134.693 34.8161 134.324 34.9135 133.956 34.9743C133.587 35.0352 133.218 35.0595 132.862 35.0595C131.634 35.0595 130.602 34.8283 129.779 34.3536C128.956 33.8789 128.292 33.2338 127.788 32.4062C127.285 31.5785 126.928 30.5927 126.72 29.4608C126.511 28.3288 126.401 27.1117 126.401 25.8094C126.401 19.8698 128.648 16.9 133.157 16.9C134.275 16.9 135.208 17.0826 135.982 17.4356C136.756 17.7885 137.383 18.2754 137.862 18.8596C138.341 19.456 138.685 20.1375 138.894 20.8922C139.103 21.659 139.213 22.4501 139.213 23.2534H135.798C135.798 22.9004 135.774 22.5353 135.724 22.158C135.675 21.7807 135.565 21.452 135.393 21.1599C135.22 20.8678 134.951 20.6244 134.594 20.4419C134.238 20.2593 133.759 20.1619 133.144 20.1619C132.53 20.1619 132.002 20.2593 131.584 20.4662C131.155 20.6731 130.811 20.9896 130.54 21.4277C130.27 21.8659 130.074 22.438 129.951 23.1317C129.828 23.8254 129.766 24.6652 129.766 25.6389C129.766 26.71 129.816 27.635 129.926 28.4018C130.037 29.1686 130.221 29.7893 130.491 30.2519C130.761 30.7266 131.118 31.0674 131.56 31.2864C132.002 31.5055 132.567 31.615 133.255 31.615C133.648 31.615 134.017 31.5542 134.373 31.4325C134.729 31.3108 135.036 31.116 135.295 30.8604C135.553 30.6048 135.761 30.264 135.909 29.8624C136.056 29.4608 136.117 28.9739 136.105 28.4018H132.96V25.1765H139.471V34.7674H139.447ZM152.75 34.7674H141.547V17.253H152.554V20.6488H144.889V23.8741H151.94V27.2699H144.889V31.3472H152.75V34.7674Z" fill="#333333"/>
<defs>
<linearGradient id="paint0_linear_6755_401" x1="35.75" y1="10.4" x2="35.75" y2="42.25" gradientUnits="userSpaceOnUse">
<stop offset="0.0819851" stop-color="#4A4A4A"/>
<stop offset="0.885417" stop-color="#161616"/>
</linearGradient>
<linearGradient id="paint1_linear_6755_401" x1="112.45" y1="10.4" x2="112.45" y2="42.25" gradientUnits="userSpaceOnUse">
<stop offset="0.151372" stop-color="#F4F4F4"/>
<stop offset="1" stop-color="#BEBEBE"/>
</linearGradient>
</defs>
</svg>
