<svg width="163" height="52" viewBox="0 0 163 52" fill="none" xmlns="http://www.w3.org/2000/svg">
<path d="M16.061 8.50436C22.1401 8.50436 27.0695 13.6218 27.0695 19.9341C27.0695 26.2464 22.1401 31.363 16.061 31.363C9.98104 31.363 5.05249 26.2464 5.05249 19.9341C5.05249 13.6218 9.98104 8.50436 16.061 8.50436Z" fill="#2A609F"/>
<path d="M15.9516 29.51C21.1122 29.51 25.2957 25.1448 25.2957 19.76C25.2957 14.3752 21.1122 10.01 15.9516 10.01C10.7909 10.01 6.60742 14.3752 6.60742 19.76C6.60742 25.1448 10.7909 29.51 15.9516 29.51Z" fill="white"/>
<path d="M33.1901 38.216H110.01V12.2592H26.4305C26.7809 12.672 27.1055 13.1178 27.4017 13.595C30.1322 18.0087 29.4608 23.6743 26.0912 27.2855C25.8254 27.5711 25.543 27.8428 25.2441 28.1008L25.6286 28.7217L25.9606 29.2588L26.2254 29.6862L26.9225 30.8148C27.1819 30.7843 27.443 30.8148 27.6868 30.9023C28.0768 30.9189 28.4565 31.0571 28.7729 31.3058C28.9495 31.444 29.1068 31.6153 29.2337 31.8189L32.8526 37.6715L33.1901 38.216Z" fill="#2A609F"/>
<path d="M98.3457 17.479H105.196V20.3773H101.266V23.6771H104.702V26.5744H101.266V30.0981H105.196V32.9954H98.3457V17.479ZM31.7793 17.479H38.6291V20.3773H34.6993V23.6771H38.1343V26.5744H34.6993V30.0981H38.6291V32.9954H31.7793V17.479ZM39.4237 17.479H42.8375L43.9329 21.3132H44.0616L45.0916 17.479H48.5275L45.5652 24.9033L48.7427 32.9954H45.3068L43.9972 28.4482H43.9117L42.6011 32.9954H39.2085L42.3004 24.9033L39.4237 17.479ZM49.7737 21.4256C49.7737 20.1921 50.0919 19.2036 50.7293 18.4601C51.3657 17.7167 52.3424 17.3455 53.6602 17.3455C54.9625 17.3455 55.9254 17.6762 56.5481 18.3376C57.1706 18.9991 57.4824 19.8576 57.4824 20.9125C57.4824 20.9871 57.4824 21.0571 57.4824 21.1244C57.4824 21.1916 57.4751 21.2616 57.4613 21.3363L54.648 21.8485C54.6342 21.3888 54.5376 21.0055 54.3611 20.7006C54.1845 20.3966 53.9472 20.2437 53.6501 20.2437C53.4506 20.2437 53.2915 20.2851 53.1719 20.3662C53.0515 20.4482 52.9558 20.5486 52.8849 20.6675C52.8141 20.7863 52.7645 20.9162 52.7359 21.0571C52.7075 21.199 52.6936 21.3215 52.6936 21.4256V29.3399C52.6936 29.5482 52.7434 29.748 52.8436 29.9415C52.9429 30.135 53.1783 30.2317 53.549 30.2317C53.8341 30.2317 54.0658 30.0981 54.2433 29.83C54.4218 29.5629 54.5183 29.1612 54.5321 28.6259L57.418 29.0276C57.4033 30.2612 57.0741 31.2534 56.4294 32.0041C55.7865 32.7549 54.8549 33.1299 53.6391 33.1299C52.2927 33.1299 51.3123 32.8028 50.6961 32.1488C50.0808 31.4947 49.7737 30.5145 49.7737 29.2054V21.4256ZM59.0716 17.479H61.9916V23.632H63.8595V17.479H66.7804V32.9954H63.8595V26.5744H61.9916V32.9954H59.0716V17.479ZM70.8611 17.479H74.4257L77.2812 32.9954H74.2093L73.7588 29.9646H71.5683L71.1172 32.9954H68.0258L70.8611 17.479ZM73.051 24.6361L72.7279 21.4919H72.5992L72.2781 24.6361L71.9765 27.1096H73.3292L73.051 24.6361ZM78.5045 17.479H81.059L82.8211 21.9829L83.8299 24.8139H83.9372V17.479H86.7933V32.9954H84.3129L82.5585 28.4703L81.5328 25.5279H81.4256V32.9954H78.5045V17.479ZM88.9188 21.4256C88.9188 20.1921 89.2516 19.2036 89.9178 18.4601C90.5834 17.7167 91.5461 17.3455 92.8051 17.3455C93.4785 17.3455 94.0616 17.4459 94.5556 17.6458C95.0502 17.8466 95.4578 18.1258 95.7795 18.4822C96.1026 18.8388 96.3307 19.2626 96.4672 19.7536C96.6024 20.2437 96.6499 20.7715 96.6063 21.3363L93.7717 21.8485C93.758 21.3888 93.6638 21.0055 93.4889 20.7006C93.3128 20.3966 93.0788 20.2437 92.7843 20.2437C92.588 20.2437 92.4314 20.2851 92.3124 20.3662C92.1935 20.4482 92.0979 20.5486 92.0284 20.6675C91.9582 20.7863 91.9088 20.9162 91.8808 21.0571C91.8529 21.199 91.8399 21.3215 91.8399 21.4256V29.3399C91.8399 29.5482 91.8873 29.748 91.9861 29.9415C92.0843 30.135 92.3144 30.2317 92.6784 30.2317C92.9579 30.2317 93.188 30.1534 93.3713 29.9977C93.552 29.8411 93.643 29.6375 93.643 29.3842V26.9991H92.6556V24.346H96.5641V29.2284C96.5641 30.5072 96.2339 31.4763 95.5754 32.1378C94.917 32.7991 93.9875 33.1299 92.7843 33.1299C91.4375 33.1299 90.4573 32.8028 89.8424 32.1488C89.2269 31.4947 88.9188 30.5145 88.9188 29.2054V21.4256Z" fill="white"/>
<path d="M21.7647 14.0428C20.2233 13.0663 18.6728 12.1082 17.1286 11.1381C17.0228 11.0718 16.9162 11.0442 16.815 11.1096C16.7028 11.1824 16.6863 11.3131 16.7129 11.4403C16.8095 11.9111 16.918 12.3809 17.0164 12.8525C17.0367 12.9502 17.021 13.0064 16.9033 13.0128C11.698 13.3039 7.48675 17.9239 8.89751 23.3914C8.9343 23.5333 8.97662 23.6863 9.13665 23.7388C9.25254 23.7766 9.36746 23.7424 9.44839 23.6642C9.51092 23.6043 9.55414 23.5205 9.56064 23.4182C9.85119 19.1768 14.0735 17.1013 17.7237 16.8959C17.8193 16.8894 17.8809 16.9336 17.8965 17.0414C17.9802 17.6596 18.1697 18.356 18.2994 18.9741C18.3306 19.1252 18.3969 19.2063 18.5201 19.2293C18.659 19.256 18.7463 19.1704 18.8162 19.0663C19.8453 17.5389 20.868 15.9672 21.8521 14.4094C21.9413 14.2685 21.9045 14.1321 21.7647 14.0428ZM10.3589 25.8245C11.9003 26.801 13.4499 27.7591 14.995 28.7291C15.0998 28.7954 15.2084 28.8231 15.3086 28.7586C15.4208 28.6849 15.4364 28.5541 15.4106 28.427C15.3141 27.9562 15.2056 27.4864 15.1072 27.0156C15.0869 26.918 15.1025 26.8608 15.2212 26.8544C20.4256 26.5633 24.6369 21.9433 23.226 16.4758C23.1893 16.3339 23.147 16.181 22.9869 16.1294C22.8702 16.0907 22.7562 16.1248 22.6752 16.2031C22.6126 16.263 22.5694 16.3468 22.563 16.4491C22.2715 20.6904 18.0501 22.766 14.4 22.9723C14.3034 22.9778 14.2427 22.9346 14.228 22.8258C14.1433 22.2077 13.9539 21.5113 13.8243 20.893C13.792 20.742 13.7268 20.6609 13.6035 20.6379C13.4647 20.6112 13.3782 20.6969 13.3083 20.8019C12.2783 22.3284 11.2556 23.9 10.2715 25.4578C10.1823 25.5997 10.2191 25.7361 10.3589 25.8245Z" fill="#2A609F"/>
<path d="M30.9475 38.4003L27.231 32.391C27.1023 32.1819 26.9404 32.006 26.7593 31.865C26.2516 31.4661 25.5849 31.3427 24.9724 31.5426L24.1437 30.2022L23.8724 29.7637L23.5303 29.2118L23.1357 28.5735C23.4429 28.309 23.7326 28.0308 24.0057 27.7379C27.4656 24.0299 28.1535 18.2123 25.3503 13.6808C24.9539 13.0396 24.5051 12.4546 24.014 11.9258C23.1891 11.0368 22.2446 10.3118 21.2247 9.75629C20.007 9.09394 18.6827 8.67566 17.3243 8.51999C16.9095 8.47299 16.4929 8.44998 16.0754 8.45089C14.0622 8.4583 12.027 9.04142 10.2069 10.2547C6.94481 12.4297 5.16617 16.0999 5.16895 19.8475C5.16986 21.9498 5.73268 24.076 6.90803 25.9755C9.23209 29.7361 13.3329 31.5951 17.339 31.1363C18.4564 31.0092 19.5655 30.7015 20.6287 30.2041L21.0591 30.9005L22.4827 33.2017C21.8997 33.8733 21.793 34.8913 22.2869 35.6882L26.5643 42.6038C26.9432 43.2165 27.5824 43.55 28.2344 43.5491C28.6014 43.5491 28.9711 43.444 29.3031 43.2239L29.441 43.1299L30.9116 42.1488C31.8331 41.5362 32.0999 40.2621 31.5085 39.3067L30.9475 38.4003ZM8.237 25.0902C5.52577 20.7079 6.62569 14.9198 10.6575 11.9194C10.7882 11.8226 10.9234 11.7259 11.0604 11.6347C12.9936 10.3458 15.2099 9.88798 17.3225 10.1708C17.3859 10.1791 17.4485 10.1902 17.5119 10.1994C19.8782 10.567 22.0974 11.8668 23.6213 13.9756C23.7528 14.157 23.8807 14.3422 24.0011 14.5357C24.0076 14.5458 24.015 14.556 24.0214 14.5661C24.3699 15.1298 24.6541 15.7167 24.8795 16.3164C25.4055 17.7231 25.5931 19.2081 25.4726 20.6582C25.2307 23.5638 23.7437 26.3247 21.1979 28.0234C19.9904 28.8268 18.6735 29.3068 17.3399 29.4855C17.2415 29.4993 17.1431 29.5094 17.0438 29.5195C14.7869 29.7471 12.5043 29.117 10.6484 27.7315C9.71764 27.0359 8.89363 26.1534 8.237 25.0902Z" fill="#2A609F"/>
<path d="M153.869 12.2592H109.829V38.216H153.869C156.398 38.216 158.448 36.087 158.448 33.4605V17.0137C158.448 14.3873 156.398 12.2592 153.869 12.2592Z" fill="white"/>
<path fill-rule="evenodd" clip-rule="evenodd" d="M109.829 12.2592H153.869C156.398 12.2592 158.448 14.3873 158.448 17.0137V33.4605C158.448 36.087 156.398 38.216 153.869 38.216H109.829V12.2592ZM110.608 37.436H153.869C155.941 37.436 157.669 35.683 157.669 33.4605V17.0137C157.669 14.7915 155.942 13.0392 153.869 13.0392H110.608V37.436Z" fill="#2A609F"/>
<path d="M117.045 22.2953C117.074 22.4584 117.144 22.614 117.259 22.7633C117.373 22.9116 117.541 23.0562 117.761 23.1981C117.982 23.339 118.293 23.491 118.691 23.655C119.376 23.9369 119.918 24.2345 120.316 24.5458C120.715 24.8591 121.017 25.2008 121.225 25.5721C121.431 25.9433 121.566 26.3634 121.631 26.8314C121.695 27.2994 121.728 27.831 121.728 28.4261C121.728 29.1391 121.668 29.7858 121.545 30.3653C121.423 30.9448 121.214 31.4385 120.921 31.8475C120.629 32.2575 120.23 32.5726 119.73 32.7955C119.229 33.0185 118.6 33.1299 117.84 33.1299C117.153 33.1299 116.563 33.0249 116.069 32.8149C115.575 32.6048 115.173 32.3174 114.867 31.9498C114.559 31.584 114.333 31.1566 114.19 30.6711C114.047 30.1847 113.975 29.667 113.975 29.117L116.917 28.5366C116.945 29.1023 117.026 29.5251 117.162 29.8079C117.295 30.0907 117.548 30.2307 117.915 30.2307C118.128 30.2307 118.293 30.1801 118.415 30.076C118.534 29.9719 118.627 29.8383 118.69 29.6752C118.753 29.5122 118.796 29.3197 118.818 29.0967C118.838 28.8747 118.849 28.6508 118.849 28.4289C118.849 28.1175 118.827 27.8576 118.785 27.6495C118.742 27.4422 118.668 27.2644 118.56 27.1161C118.454 26.9677 118.306 26.8379 118.119 26.7264C117.933 26.615 117.703 26.4998 117.433 26.3818C116.701 26.0696 116.116 25.7462 115.672 25.4127C115.228 25.0792 114.888 24.7236 114.652 24.345C114.415 23.9664 114.261 23.5656 114.19 23.1428C114.118 22.7209 114.083 22.2565 114.083 21.7517C114.083 21.1142 114.153 20.5247 114.296 19.983C114.44 19.4413 114.666 18.9779 114.974 18.5919C115.282 18.2059 115.683 17.9028 116.176 17.6799C116.67 17.4569 117.268 17.3455 117.969 17.3455C118.714 17.3455 119.329 17.468 119.815 17.713C120.303 17.9581 120.686 18.2713 120.964 18.6499C121.244 19.0286 121.441 19.4487 121.556 19.9093C121.671 20.3699 121.728 20.8157 121.728 21.2469L118.849 21.8936C118.849 21.6697 118.838 21.4624 118.818 21.269C118.796 21.0765 118.751 20.9014 118.68 20.7457C118.609 20.5891 118.514 20.4666 118.393 20.3782C118.273 20.2879 118.106 20.2437 117.894 20.2437C117.696 20.2437 117.539 20.2925 117.428 20.3883C117.314 20.485 117.226 20.6038 117.162 20.7457C117.098 20.8867 117.056 21.046 117.035 21.2239C117.013 21.4026 117.002 21.574 117.002 21.737C117.002 21.9452 117.017 22.1313 117.045 22.2953ZM153.013 29.2063C153.013 30.544 152.691 31.5325 152.046 32.1718C151.403 32.8103 150.451 33.1299 149.192 33.1299C146.657 33.1299 145.391 31.8227 145.391 29.2063V21.2469C145.391 19.9093 145.726 18.9244 146.4 18.2925C147.072 17.6605 148.003 17.3455 149.192 17.3455C150.494 17.3455 151.457 17.6605 152.08 18.2925C152.702 18.9244 153.013 19.9093 153.013 21.2469V29.2063ZM149.192 20.1764C148.948 20.1764 148.739 20.251 148.568 20.4003C148.397 20.5486 148.311 20.7927 148.311 21.1354V29.3399C148.311 29.6964 148.397 29.9452 148.568 30.087C148.739 30.228 148.948 30.299 149.192 30.299C149.434 30.299 149.638 30.228 149.803 30.087C149.967 29.9452 150.05 29.6964 150.05 29.3399V21.1354C150.05 20.7927 149.967 20.5486 149.803 20.4003C149.638 20.251 149.434 20.1764 149.192 20.1764ZM143.459 32.9954H140.538V25.7499H140.452L139.747 28.1579L139.169 29.9646H137.224L136.605 27.9793L135.92 25.6836H135.813V32.9954H132.892V17.479H135.621L137.102 21.6255L138.112 24.7025H138.24L139.271 21.5592L140.732 17.479H143.459V32.9954ZM130.983 29.2063C130.983 30.544 130.66 31.5325 130.015 32.1718C129.372 32.8103 128.42 33.1299 127.16 33.1299C124.625 33.1299 123.359 31.8227 123.359 29.2063V17.502H126.279V29.2736C126.279 29.6301 126.366 29.8789 126.538 30.0198C126.709 30.1608 126.916 30.2307 127.16 30.2307C127.403 30.2307 127.608 30.1608 127.772 30.0198C127.937 29.8789 128.018 29.6301 128.018 29.2736V17.502H130.983V29.2063Z" fill="#2A609F"/>
</svg>
