<svg width="32" height="32" viewBox="0 0 32 32" fill="none" xmlns="http://www.w3.org/2000/svg">
<path d="M0 16.0018C0 7.16525 7.16344 0.00180054 16 0.00180054C24.8366 0.00180054 32 7.16525 32 16.0018C32 24.8384 24.8366 32.0018 16 32.0018C7.16344 32.0018 0 24.8384 0 16.0018Z" fill="#50AF95"/>
<path d="M28.0707 19.0138C26.4085 25.6813 19.6554 29.739 12.9872 28.0764C6.32167 26.4141 2.26397 19.6606 3.92693 12.9937C5.58844 6.32546 12.3415 2.26746 19.0077 3.92969C25.6755 5.59192 29.733 12.3462 28.0706 19.0139L28.0707 19.0138H28.0707Z" fill="#50AF95"/>
<path fill-rule="evenodd" clip-rule="evenodd" d="M17.5693 17.4146C17.4813 17.4212 17.0266 17.4483 16.0124 17.4483C15.2057 17.4483 14.6329 17.4241 14.432 17.4146C11.3145 17.2774 8.9875 16.7347 8.9875 16.085C8.9875 15.4352 11.3145 14.8933 14.432 14.7539V16.8741C14.6359 16.8888 15.2196 16.9232 16.0263 16.9232C16.9943 16.9232 17.4791 16.8829 17.5664 16.8748V14.7554C20.6773 14.894 22.9991 15.4367 22.9991 16.085C22.9991 16.7333 20.678 17.276 17.5664 17.4138L17.5693 17.4146ZM17.5696 14.5357V12.6385H21.9111V9.74535H10.0907V12.6385H14.4315V14.5349C10.9033 14.697 8.25 15.3959 8.25 16.2334C8.25 17.0709 10.9033 17.7691 14.4315 17.9319V24.0114H17.5688V17.9297C21.089 17.7676 23.7379 17.0694 23.7379 16.2327C23.7379 15.3959 21.0912 14.6977 17.5688 14.5349L17.5696 14.5357Z" fill="white"/>
<path d="M23.4598 27.8252C25.8653 27.8252 27.8154 25.8751 27.8154 23.4696C27.8154 21.0641 25.8653 19.114 23.4598 19.114C21.0543 19.114 19.1042 21.0641 19.1042 23.4696C19.1042 25.8751 21.0543 27.8252 23.4598 27.8252Z" fill="#FE0000"/>
<path d="M26.3254 22.18C26.0784 22.0073 25.8141 21.8231 25.5557 21.6403C25.55 21.636 25.5443 21.6316 25.5371 21.6274C25.5085 21.606 25.4757 21.5831 25.4357 21.5703L25.4329 21.5688C24.7417 21.4017 24.0391 21.2304 23.3593 21.0648C22.7424 20.9148 22.1269 20.7649 21.51 20.6149C21.4943 20.6106 21.4786 20.6063 21.4615 20.6021C21.4058 20.5863 21.3415 20.5692 21.2729 20.5778C21.2529 20.5806 21.2358 20.5878 21.2201 20.5978L21.2029 20.612C21.1759 20.6377 21.1616 20.6706 21.1544 20.6892L21.1501 20.7006V20.7662L21.1529 20.7763C21.5429 21.8687 21.9428 22.9769 22.3283 24.0494C22.6253 24.8748 22.9337 25.7302 23.2351 26.5699C23.2537 26.6271 23.3065 26.6642 23.3722 26.6699H23.3864C23.4479 26.6699 23.5021 26.6399 23.5293 26.5913L24.6603 24.9419C24.9358 24.5406 25.2115 24.138 25.4871 23.7366C25.6 23.5724 25.7128 23.4067 25.8255 23.2426C26.0113 22.9712 26.2026 22.6913 26.3925 22.4185L26.4025 22.4042V22.3871C26.4068 22.3371 26.4082 22.2344 26.3254 22.18ZM25.0001 22.7813C24.7346 22.9197 24.4632 23.0625 24.1904 23.204C24.349 23.034 24.5089 22.8627 24.6675 22.6927C24.866 22.4785 25.0729 22.2572 25.2758 22.0401L25.28 22.0358C25.2972 22.013 25.3186 21.9916 25.3414 21.9687C25.3572 21.953 25.3743 21.9373 25.39 21.9187C25.4956 21.9916 25.6028 22.0659 25.7056 22.1387C25.7799 22.1914 25.8556 22.2443 25.9327 22.2971C25.6185 22.4571 25.3043 22.6213 25.0001 22.7813ZM24.3176 22.7128C24.1134 22.9341 23.902 23.1612 23.692 23.3854C23.2851 22.8912 22.8696 22.39 22.4668 21.9058C22.284 21.686 22.0998 21.4646 21.917 21.2447L21.9156 21.2433C21.8742 21.1961 21.8342 21.1448 21.7941 21.0961C21.7685 21.0633 21.7414 21.0319 21.7142 20.9991C21.8799 21.0419 22.047 21.0819 22.2111 21.1205C22.3554 21.1547 22.5053 21.1904 22.6524 21.2275C23.4807 21.4289 24.3104 21.6303 25.1387 21.8316C24.8631 22.1258 24.5861 22.4243 24.3176 22.7128ZM23.5992 25.496C23.615 25.346 23.6321 25.1918 23.6464 25.0405C23.6593 24.9191 23.6721 24.7948 23.685 24.6763C23.7049 24.4864 23.7264 24.2893 23.7435 24.0965L23.7477 24.0623C23.762 23.9395 23.7763 23.8123 23.7848 23.6852C23.8006 23.6767 23.8177 23.6681 23.8363 23.6609C23.8577 23.651 23.8791 23.6424 23.9006 23.6295C24.2305 23.4567 24.5603 23.284 24.8917 23.1125C25.2216 22.9412 25.5599 22.7641 25.8955 22.5885C25.5899 23.0311 25.2829 23.4782 24.9858 23.9137C24.7303 24.2865 24.4675 24.6706 24.2062 25.049C24.1033 25.2004 23.9962 25.3546 23.8949 25.5031C23.7806 25.6688 23.6635 25.8387 23.5492 26.0087C23.5635 25.8372 23.5807 25.6645 23.5992 25.496ZM21.6085 21.3361C21.59 21.2847 21.5699 21.2319 21.5528 21.1819C21.9384 21.6474 22.3269 22.1158 22.7053 22.57C22.901 22.8056 23.0966 23.0397 23.2923 23.2768C23.3307 23.3211 23.3693 23.3682 23.4064 23.4139C23.455 23.4725 23.5036 23.5339 23.5564 23.5924C23.5393 23.7395 23.525 23.888 23.5093 24.0308C23.4992 24.1308 23.4893 24.2308 23.4779 24.3321V24.3335C23.4735 24.3978 23.465 24.4621 23.4579 24.5249C23.4479 24.612 23.425 24.8091 23.425 24.8091L23.4236 24.8191C23.3979 25.1076 23.3665 25.3989 23.3365 25.6817C23.3237 25.7988 23.3122 25.9187 23.2993 26.0386C23.2923 26.0173 23.2836 25.9958 23.2765 25.9758C23.2551 25.9187 23.2337 25.8587 23.2136 25.8001L23.0609 25.3761C22.5768 24.0294 22.0926 22.6841 21.6085 21.3361Z" fill="white"/>
</svg>
