<svg width="32" height="32" viewBox="0 0 32 32" fill="none" xmlns="http://www.w3.org/2000/svg">
<path d="M0 16C0 7.16344 7.16344 0 16 0C24.8366 0 32 7.16344 32 16C32 24.8366 24.8366 32 16 32C7.16344 32 0 24.8366 0 16Z" fill="#50AF95"/>
<path d="M28.0707 19.012C26.4085 25.6795 19.6554 29.7372 12.9872 28.0746C6.32167 26.4123 2.26397 19.6588 3.92693 12.9919C5.58844 6.32368 12.3415 2.26567 19.0077 3.9279C25.6755 5.59014 29.733 12.3444 28.0706 19.0122L28.0707 19.012H28.0707Z" fill="#50AF95"/>
<path fill-rule="evenodd" clip-rule="evenodd" d="M17.5693 17.4128C17.4813 17.4194 17.0266 17.4465 16.0124 17.4465C15.2057 17.4465 14.6329 17.4223 14.432 17.4128C11.3145 17.2757 8.9875 16.733 8.9875 16.0832C8.9875 15.4334 11.3145 14.8915 14.432 14.7522V16.8723C14.6359 16.887 15.2196 16.9214 16.0263 16.9214C16.9943 16.9214 17.4791 16.8811 17.5664 16.873V14.7536C20.6773 14.8922 22.9991 15.4349 22.9991 16.0832C22.9991 16.7315 20.678 17.2742 17.5664 17.4121L17.5693 17.4128ZM17.5696 14.5339V12.6367H21.9111V9.74356H10.0907V12.6367H14.4315V14.5331C10.9033 14.6952 8.25 15.3941 8.25 16.2316C8.25 17.0691 10.9033 17.7673 14.4315 17.9301V24.0096H17.5688V17.9279C21.089 17.7658 23.7379 17.0676 23.7379 16.2309C23.7379 15.3941 21.0912 14.696 17.5688 14.5331L17.5696 14.5339Z" fill="white"/>
<path d="M23.4598 27.8234C25.8653 27.8234 27.8154 25.8733 27.8154 23.4678C27.8154 21.0623 25.8653 19.1122 23.4598 19.1122C21.0543 19.1122 19.1042 21.0623 19.1042 23.4678C19.1042 25.8733 21.0543 27.8234 23.4598 27.8234Z" fill="#FE0000"/>
<path d="M26.3254 22.1782C26.0784 22.0055 25.8141 21.8213 25.5557 21.6385C25.55 21.6342 25.5443 21.6298 25.5371 21.6256C25.5085 21.6042 25.4757 21.5813 25.4357 21.5685L25.4329 21.567C24.7417 21.3999 24.0391 21.2286 23.3593 21.063C22.7424 20.913 22.1269 20.7631 21.51 20.6131C21.4943 20.6088 21.4786 20.6045 21.4615 20.6003C21.4058 20.5845 21.3415 20.5674 21.2729 20.576C21.2529 20.5788 21.2358 20.586 21.2201 20.596L21.2029 20.6102C21.1759 20.6359 21.1616 20.6688 21.1544 20.6874L21.1501 20.6988V20.7644L21.1529 20.7745C21.5429 21.8669 21.9428 22.9751 22.3283 24.0476C22.6253 24.873 22.9337 25.7284 23.2351 26.5681C23.2537 26.6253 23.3065 26.6624 23.3722 26.6681H23.3864C23.4479 26.6681 23.5021 26.6381 23.5293 26.5895L24.6603 24.9401C24.9358 24.5388 25.2115 24.1362 25.4871 23.7348C25.6 23.5706 25.7128 23.4049 25.8255 23.2408C26.0113 22.9694 26.2026 22.6895 26.3925 22.4167L26.4025 22.4024V22.3853C26.4068 22.3353 26.4082 22.2326 26.3254 22.1782ZM25.0001 22.7795C24.7346 22.9179 24.4632 23.0607 24.1904 23.2022C24.349 23.0322 24.5089 22.8609 24.6675 22.6909C24.866 22.4767 25.0729 22.2554 25.2758 22.0383L25.28 22.034C25.2972 22.0112 25.3186 21.9898 25.3414 21.9669C25.3572 21.9512 25.3743 21.9355 25.39 21.9169C25.4956 21.9898 25.6028 22.0641 25.7056 22.1369C25.7799 22.1896 25.8556 22.2425 25.9327 22.2953C25.6185 22.4553 25.3043 22.6195 25.0001 22.7795ZM24.3176 22.711C24.1134 22.9323 23.902 23.1594 23.692 23.3836C23.2851 22.8894 22.8696 22.3882 22.4668 21.904C22.284 21.6842 22.0998 21.4628 21.917 21.2429L21.9156 21.2415C21.8742 21.1943 21.8342 21.143 21.7941 21.0943C21.7685 21.0615 21.7414 21.0301 21.7142 20.9973C21.8799 21.0401 22.047 21.0801 22.2111 21.1187C22.3554 21.1529 22.5053 21.1886 22.6524 21.2257C23.4807 21.4271 24.3104 21.6285 25.1387 21.8298C24.8631 22.124 24.5861 22.4225 24.3176 22.711ZM23.5992 25.4942C23.615 25.3442 23.6321 25.19 23.6464 25.0387C23.6593 24.9173 23.6721 24.793 23.685 24.6745C23.7049 24.4846 23.7264 24.2875 23.7435 24.0947L23.7477 24.0605C23.762 23.9377 23.7763 23.8105 23.7848 23.6834C23.8006 23.6749 23.8177 23.6663 23.8363 23.6591C23.8577 23.6492 23.8791 23.6406 23.9006 23.6277C24.2305 23.4549 24.5603 23.2822 24.8917 23.1107C25.2216 22.9394 25.5599 22.7623 25.8955 22.5867C25.5899 23.0293 25.2829 23.4764 24.9858 23.9119C24.7303 24.2847 24.4675 24.6688 24.2062 25.0472C24.1033 25.1986 23.9962 25.3528 23.8949 25.5013C23.7806 25.667 23.6635 25.8369 23.5492 26.0069C23.5635 25.8354 23.5807 25.6627 23.5992 25.4942ZM21.6085 21.3343C21.59 21.2829 21.5699 21.2301 21.5528 21.1801C21.9384 21.6456 22.3269 22.114 22.7053 22.5682C22.901 22.8038 23.0966 23.0379 23.2923 23.275C23.3307 23.3193 23.3693 23.3664 23.4064 23.4121C23.455 23.4707 23.5036 23.5321 23.5564 23.5906C23.5393 23.7377 23.525 23.8862 23.5093 24.029C23.4992 24.129 23.4893 24.229 23.4779 24.3303V24.3317C23.4735 24.396 23.465 24.4603 23.4579 24.5231C23.4479 24.6102 23.425 24.8073 23.425 24.8073L23.4236 24.8173C23.3979 25.1058 23.3665 25.3971 23.3365 25.6799C23.3237 25.797 23.3122 25.9169 23.2993 26.0368C23.2923 26.0155 23.2836 25.994 23.2765 25.974C23.2551 25.9169 23.2337 25.8569 23.2136 25.7983L23.0609 25.3743C22.5768 24.0276 22.0926 22.6823 21.6085 21.3343Z" fill="white"/>
</svg>
