<svg width="33" height="32" viewBox="0 0 33 32" fill="none" xmlns="http://www.w3.org/2000/svg">
<path d="M31.7434 19.8723C29.6063 28.4438 20.9237 33.6602 12.3502 31.5228C3.78035 29.3859 -1.4367 20.7038 0.701399 12.133C2.83762 3.56051 11.5201 -1.65634 20.091 0.480575C28.6639 2.61749 33.8806 11.3005 31.7432 19.8724L31.7434 19.8723H31.7434Z" fill="#23292F"/>
<path d="M24.0926 6.66875H27.3217L20.6016 13.3218C18.168 15.7298 14.2223 15.7298 11.7869 13.3218L5.06421 6.66875H8.29597L13.4015 11.7227C14.9493 13.248 17.4353 13.248 18.9831 11.7227L24.0926 6.66875Z" fill="white"/>
<path d="M8.25451 25.1688H5.02319L11.7869 18.4748C14.2206 16.0667 18.1662 16.0667 20.6016 18.4748L27.3653 25.1688H24.1362L18.987 20.0739C17.4392 18.5486 14.9533 18.5486 13.4054 20.0739L8.25451 25.1688Z" fill="white"/>
</svg>
